<svg xmlns="http://www.w3.org/2000/svg" width="50" height="50" viewBox="0 0 50 50">
  <g id="pwd_icon" transform="translate(-1272 -424)">
    <path id="_21ba3125745c1d6bb8c0c0b2d3387581" data-name="21ba3125745c1d6bb8c0c0b2d3387581" d="M14.624,16.608A1.979,1.979,0,0,0,13.3,20.073v1.846a1.328,1.328,0,0,0,2.656,0V20.073a1.979,1.979,0,0,0-1.328-3.466Zm6.64-5.312V8.64a6.64,6.64,0,1,0-13.28,0V11.3A3.984,3.984,0,0,0,4,15.28v9.3a3.984,3.984,0,0,0,3.984,3.984h13.28a3.984,3.984,0,0,0,3.984-3.984v-9.3A3.984,3.984,0,0,0,21.263,11.3ZM10.64,8.64a3.984,3.984,0,1,1,7.968,0V11.3H10.64ZM22.591,24.575A1.328,1.328,0,0,1,21.263,25.9H7.984a1.328,1.328,0,0,1-1.328-1.328v-9.3a1.328,1.328,0,0,1,1.328-1.328h13.28a1.328,1.328,0,0,1,1.328,1.328Z" transform="translate(1282 433.72)" fill="#707070"/>
    <g id="楕円形_1" data-name="楕円形 1" transform="translate(1272 424)" fill="none" stroke="#707070" stroke-width="4">
      <circle cx="25" cy="25" r="25" stroke="none"/>
      <circle cx="25" cy="25" r="23" fill="none"/>
    </g>
  </g>
</svg>
