<svg xmlns="http://www.w3.org/2000/svg" width="50" height="50" viewBox="0 0 50 50">
  <path id="user_icon" d="M25.986.986a25,25,0,1,0,25,25,25.029,25.029,0,0,0-25-25Zm0,3.564A21.392,21.392,0,0,1,41.7,40.507a20.8,20.8,0,0,0-9.139-6.252A10.675,10.675,0,1,0,15.122,26.05a10.577,10.577,0,0,0,3.935,8.191,20.837,20.837,0,0,0-9,6.052A21.412,21.412,0,0,1,25.986,4.55Zm-.125,14.328a7.12,7.12,0,0,1,.232,14.236c-.1,0-.2-.021-.307-.021s-.175.018-.264.021a7.121,7.121,0,0,1,.342-14.236Zm-.342,17.793c.086,0,.171.029.257.029h.086c.078,0,.143-.025.221-.029a17.251,17.251,0,0,1,12.985,6.245,21.314,21.314,0,0,1-26.419-.164A17.28,17.28,0,0,1,25.519,36.672Z" transform="translate(-0.986 -0.986)" fill="#707070"/>
</svg>
