<svg xmlns="http://www.w3.org/2000/svg" width="17" height="17.929" viewBox="0 0 17 17.929">
  <g id="next_arrow01" transform="translate(850.149 656.965) rotate(180)">
    <path id="パス_6118" data-name="パス 6118" d="M86.583,371.387a.9.9,0,0,1-.634-.262l-7.434-7.434-7.434,7.434a.9.9,0,1,1-1.268-1.268l8.068-8.068a.923.923,0,0,1,1.268,0l8.068,8.068a.9.9,0,0,1-.634,1.53Z" transform="translate(478.762 726.515) rotate(-90)" fill="#ddd"/>
    <path id="パス_6119" data-name="パス 6119" d="M86.583,371.387a.9.9,0,0,1-.634-.262l-7.434-7.434-7.434,7.434a.9.9,0,1,1-1.268-1.268l8.068-8.068a.923.923,0,0,1,1.268,0l8.068,8.068a.9.9,0,0,1-.634,1.53Z" transform="translate(471.613 726.515) rotate(-90)" fill="#ddd"/>
  </g>
</svg>
