<svg width="14" height="19" viewBox="0 0 14 19" fill="none" xmlns="http://www.w3.org/2000/svg">
<path d="M7 0C7.55228 0 8 0.447716 8 1V11.5848L11.2919 8.29289C11.6824 7.90237 12.3156 7.90237 12.7061 8.29289C13.0966 8.68342 13.0966 9.31658 12.7061 9.70711L9 13.4132V13.4142L7.70709 14.7071C7.69794 14.7163 7.68866 14.7252 7.67923 14.734L7.63501 14.7782V14.7726C7.26666 15.0761 6.73199 15.0758 6.36395 14.7717V14.7782L1.29288 9.70711C0.902374 9.31658 0.902374 8.68342 1.29288 8.29289C1.68341 7.90237 2.31659 7.90237 2.70709 8.29289L6 11.5858V1C6 0.447716 6.44772 0 7 0Z" fill="#707070"/>
<path d="M1 17C0.447723 17 0 17.4477 0 18C0 18.5523 0.447723 19 1 19H13C13.5523 19 14 18.5523 14 18C14 17.4477 13.5523 17 13 17H1Z" fill="#707070"/>
</svg>
