<svg xmlns="http://www.w3.org/2000/svg" width="20" height="20" viewBox="0 0 20 20">
  <g id="export_icon" transform="translate(-926 -223)">
    <path id="export_icon-2" data-name="export_icon" d="M20.92,15.62a1.15,1.15,0,0,0-.21-.33l-3-3a1,1,0,0,0-1.42,1.42L17.59,15H12a1,1,0,0,0,0,2h5.59l-1.3,1.29a1,1,0,1,0,1.42,1.42l3-3a.93.93,0,0,0,.21-.33,1,1,0,0,0,0-.76ZM14,20H6a1,1,0,0,1-1-1V5A1,1,0,0,1,6,4h5V7a3,3,0,0,0,3,3h4a1.006,1.006,0,0,0,.71-1.71l-6-6a1.07,1.07,0,0,0-.28-.19h-.09L12.06,2H6A3,3,0,0,0,3,5V19a3,3,0,0,0,3,3h8a1,1,0,0,0,0-2ZM13,5.41,15.59,8H14a1,1,0,0,1-1-1Z" transform="translate(924 221)" fill="#fff"/>
    <rect id="長方形_3" data-name="長方形 3" width="20" height="20" transform="translate(926 223)" fill="none"/>
  </g>
</svg>
