<svg xmlns="http://www.w3.org/2000/svg" width="20" height="20" viewBox="0 0 20 20">
  <g id="import_icon" transform="translate(-885 -221)">
    <path id="import_icon-2" data-name="import_icon" d="M11,20H6a1,1,0,0,1-1-1V5A1,1,0,0,1,6,4h5V7a3,3,0,0,0,3,3h3v2a1,1,0,0,0,2,0V8.94a1.31,1.31,0,0,0-.06-.27V8.58a1.32,1.32,0,0,0-.19-.29l-6-6a1.32,1.32,0,0,0-.29-.19.32.32,0,0,0-.09,0L12.06,2H6A3,3,0,0,0,3,5V19a3,3,0,0,0,3,3h5a1,1,0,0,0,0-2ZM13,5.41,15.59,8H14a1,1,0,0,1-1-1ZM19,15H13.41l1.3-1.29a1,1,0,0,0-1.42-1.42l-3,3a1.15,1.15,0,0,0-.21.33,1,1,0,0,0,0,.76.93.93,0,0,0,.21.33l3,3a1,1,0,1,0,1.42-1.42L13.41,17H19a1,1,0,0,0,0-2Z" transform="translate(883 219)" fill="#fff"/>
    <rect id="長方形_2" data-name="長方形 2" width="20" height="20" transform="translate(885 221)" fill="none"/>
  </g>
</svg>
