<svg width="22" height="23" viewBox="0 0 22 23" fill="none" xmlns="http://www.w3.org/2000/svg">
<path d="M11.6535 17.1272L15.9369 12.8062C16.2964 12.4436 16.2964 11.8566 15.9369 11.494C15.5763 11.1302 14.9906 11.1302 14.63 11.494L11.9231 14.2246L11.9231 1.67898C11.9231 1.16798 11.5119 0.75 11 0.75C10.4881 0.75 10.0769 1.16798 10.0769 1.67898L10.0769 14.2246L7.37005 11.494C7.00939 11.1302 6.42374 11.1302 6.06308 11.494C5.70362 11.8566 5.70362 12.4436 6.06308 12.8062L10.3465 17.1272C10.7072 17.4911 11.2928 17.4911 11.6535 17.1272ZM7.69231 8.22633C7.69231 7.71533 7.28109 7.29734 6.76923 7.29734H2.875C1.69934 7.29734 0.75 8.25817 0.75 9.4388V20.1085C0.75 21.2892 1.69934 22.25 2.875 22.25H19.125C20.3007 22.25 21.25 21.2892 21.25 20.1085V9.4388C21.25 8.25817 20.3007 7.29734 19.125 7.29734H15.2308C14.7189 7.29734 14.3077 7.71533 14.3077 8.22633C14.3077 8.73733 14.7189 9.15531 15.2308 9.15531H19.125C19.2769 9.15531 19.4038 9.28017 19.4038 9.4388V20.1085C19.4038 20.2672 19.2769 20.392 19.125 20.392H2.875C2.72305 20.392 2.59615 20.2672 2.59615 20.1085V9.4388C2.59615 9.28017 2.72305 9.15531 2.875 9.15531H6.76923C7.28109 9.15531 7.69231 8.73733 7.69231 8.22633Z" fill="white" stroke="white" stroke-width="0.5"/>
</svg>
