<svg width="22" height="19" viewBox="0 0 22 19" fill="none" xmlns="http://www.w3.org/2000/svg">
<path d="M11 18C11 18.5523 10.5523 19 10 19L9.00003 19L9.00003 18.9871C3.98573 18.7271 7.72996e-07 14.579 1.66103e-06 9.49999C2.10505e-06 6.9605 0.996435 4.65373 2.61965 2.94934C4.24288 1.24495 6.49288 0.142928 9.00003 0.0129258C9.16562 0.00433891 9.33232 1.63171e-06 9.50004 1.66104e-06C13.7426 2.40284e-06 17.3357 2.78109 18.5556 6.61967L21.1329 7.211C21.9 7.38699 22.1725 8.33907 21.6148 8.89433L17.1143 13.375C16.5928 13.8943 15.7079 13.6913 15.4649 12.9966L13.3678 7.00218C13.1079 6.25933 13.7682 5.52129 14.5353 5.69728L16.1731 6.07306C14.9285 3.65435 12.4075 2 9.50004 2C9.33202 2 9.1653 2.00552 9.00003 2.0164C7.82396 2.09381 6.72193 2.44231 5.75584 3C3.64663 4.21758 2.18542 6.43232 2.01642 9C2.00554 9.16526 2.00001 9.33198 2.00001 9.49999C2.00001 13.4741 5.091 16.7263 9.00003 16.9836L9.00003 17L10 17C10.5523 17 11 17.4477 11 18Z" fill="#707070"/>
</svg>
